<svg id="telegram" xmlns="http://www.w3.org/2000/svg" width="28" height="28" viewBox="0 0 28 28">
  <defs>
    <style>
      .cls-1 {
        fill: #ff8a65;
      }

      .cls-2 {
        fill: #fe480f;
      }

      .cls-3 {
        fill: #e5e5e5;
      }

      .cls-4 {
        fill: #ccc;
      }

      .cls-5 {
        fill: #fff;
      }
    </style>
  </defs>
  <path id="Path_87" data-name="Path 87" class="cls-1" d="M14,0A14,14,0,1,1,0,14,14,14,0,0,1,14,0Z" transform="translate(0)"/>
  <path id="Path_65" data-name="Path 65" class="cls-2" d="M1.867,14A14,14,0,0,1,14.933.032C14.625.011,14.314,0,14,0a14,14,0,0,0,0,28c.314,0,.625-.011.933-.032A14,14,0,0,1,1.867,14Z" transform="translate(0 0)"/>
  <path id="Path_66" data-name="Path 66" class="cls-3" d="M104.936,107.659a.467.467,0,0,0-.459-.037l-15.044,7a.735.735,0,0,0,.016,1.341l13.869,6.041a.742.742,0,0,0,1.038-.626l.783-13.308A.467.467,0,0,0,104.936,107.659Z" transform="translate(-84.14 -101.695)"/>
  <path id="Path_67" data-name="Path 67" class="cls-4" d="M171.631,118.549l.937,6.266,10.412-16.383Z" transform="translate(-162.245 -102.502)"/>
  <path id="Path_68" data-name="Path 68" class="cls-5" d="M104.476,107.625l-15.044,7a.735.735,0,0,0,.016,1.341l4.077,1.776,11.35-10.117A.466.466,0,0,0,104.476,107.625Z" transform="translate(-84.14 -101.698)"/>
  <path id="Path_69" data-name="Path 69" class="cls-3" d="M190.01,119.5l-1.238,5.318,10.412-16.383Z" transform="translate(-178.449 -102.502)"/>
  <path id="Path_70" data-name="Path 70" class="cls-5" d="M220.652,108.466a.456.456,0,0,0-.06-.034L211.418,119.5l7.616,3.317a.742.742,0,0,0,1.038-.626l.783-13.308A.467.467,0,0,0,220.652,108.466Z" transform="translate(-199.856 -102.502)"/>
</svg>
