<svg xmlns="http://www.w3.org/2000/svg" xmlns:xlink="http://www.w3.org/1999/xlink" width="779.754" height="699.692" viewBox="0 0 779.754 699.692">
  <defs>
    <style>
      .cls-1 {
        fill: #fcfcfc;
      }

      .cls-2 {
        fill: #3f3d56;
      }

      .cls-3 {
        opacity: 0.1;
      }

      .cls-4 {
        fill: #f2f2f2;
      }

      .cls-5 {
        fill: #ff8a65;
      }

      .cls-6 {
        fill: #fa7045;
      }

      .cls-7 {
        fill: #fe855e;
      }

      .cls-8 {
        fill: #2f2e41;
      }

      .cls-9 {
        fill: #fbbebe;
      }

      .cls-10 {
        filter: url(#Path_25);
      }
    </style>
    <filter id="Path_25" x="0" y="0" width="779.754" height="699.692" filterUnits="userSpaceOnUse">
      <feOffset dy="3" input="SourceAlpha"/>
      <feGaussianBlur stdDeviation="45.5" result="blur"/>
      <feFlood flood-opacity="0.051"/>
      <feComposite operator="in" in2="blur"/>
      <feComposite in="SourceGraphic"/>
    </filter>
  </defs>
  <g id="undraw_code_review_l1q9" transform="translate(121.077 133.5)">
    <g class="cls-10" transform="matrix(1, 0, 0, 1, -121.08, -133.5)">
      <path id="Path_25-2" data-name="Path 25" class="cls-1" d="M353.845,445.367C218.249,435.048,56.543,329.983,64.776,221.8S229.622,12.911,365.218,23.23,578.868,235.722,570.636,343.9,489.441,455.686,353.845,445.367Z" transform="translate(72.03 111)"/>
    </g>
    <ellipse id="Ellipse_14" data-name="Ellipse 14" class="cls-2" cx="283.053" cy="17.341" rx="283.053" ry="17.341" transform="translate(33.113 405.56)"/>
    <ellipse id="Ellipse_15" data-name="Ellipse 15" class="cls-3" cx="241.099" cy="11.468" rx="241.099" ry="11.468" transform="translate(75.067 411.154)"/>
    <ellipse id="Ellipse_16" data-name="Ellipse 16" class="cls-2" cx="118.7" cy="10.349" rx="118.7" ry="10.349" transform="translate(0 457.584)"/>
    <ellipse id="Ellipse_17" data-name="Ellipse 17" class="cls-3" cx="101.106" cy="6.844" rx="101.106" ry="6.844" transform="translate(17.594 460.922)"/>
    <rect id="Rectangle_22" data-name="Rectangle 22" class="cls-2" width="420.664" height="330.042" transform="translate(109.75 90.622)"/>
    <path id="Path_26" data-name="Path 26" class="cls-4" d="M517.809,263.145H414.032a1.259,1.259,0,0,1,0-2.519H517.809a1.259,1.259,0,1,1,0,2.519Z" transform="translate(-202.514 -127.42)"/>
    <path id="Path_27" data-name="Path 27" class="cls-4" d="M674.066,287.911H510.843a1.259,1.259,0,0,1,0-2.519H674.066a1.259,1.259,0,1,1,0,2.519Z" transform="translate(-245.169 -138.332)"/>
    <path id="Path_28" data-name="Path 28" class="cls-4" d="M518.71,312.677H414.932a1.259,1.259,0,0,1,0-2.519H518.71a1.259,1.259,0,0,1,0,2.519Z" transform="translate(-202.91 -149.244)"/>
    <path id="Path_29" data-name="Path 29" class="cls-4" d="M720.888,313.127H617.11a1.259,1.259,0,1,1,0-2.519H720.888a1.259,1.259,0,0,1,0,2.519Z" transform="translate(-291.991 -149.442)"/>
    <path id="Path_30" data-name="Path 30" class="cls-4" d="M519.16,337.442H415.382a1.259,1.259,0,0,1,0-2.519H519.16a1.259,1.259,0,0,1,0,2.519Z" transform="translate(-203.109 -160.156)"/>
    <path id="Path_31" data-name="Path 31" class="cls-4" d="M519.61,362.208H415.833a1.259,1.259,0,0,1,0-2.519H519.61a1.259,1.259,0,1,1,0,2.519Z" transform="translate(-203.307 -171.068)"/>
    <path id="Path_32" data-name="Path 32" class="cls-4" d="M662.143,263.6H632.42a1.259,1.259,0,1,1,0-2.519h29.723a1.259,1.259,0,0,1,0,2.519Z" transform="translate(-298.737 -127.618)"/>
    <path id="Path_33" data-name="Path 33" class="cls-4" d="M662.143,337.442H632.42a1.259,1.259,0,1,1,0-2.519h29.723a1.259,1.259,0,0,1,0,2.519Z" transform="translate(-298.737 -160.156)"/>
    <path id="Path_34" data-name="Path 34" class="cls-4" d="M662.143,361.758H632.42a1.259,1.259,0,0,1,0-2.519h29.723a1.259,1.259,0,1,1,0,2.519Z" transform="translate(-298.737 -170.869)"/>
    <path id="Path_35" data-name="Path 35" class="cls-4" d="M751.3,361.758H721.577a1.259,1.259,0,0,1,0-2.519H751.3a1.259,1.259,0,0,1,0,2.519Z" transform="translate(-338.02 -170.869)"/>
    <path id="Path_36" data-name="Path 36" class="cls-4" d="M443.3,287.911H413.581a1.259,1.259,0,0,1,0-2.519H443.3a1.259,1.259,0,1,1,0,2.519Z" transform="translate(-202.315 -138.332)"/>
    <path id="Path_37" data-name="Path 37" class="cls-4" d="M518.034,627.877H414.257a1.259,1.259,0,1,1,0-2.519H518.034a1.259,1.259,0,1,1,0,2.519Z" transform="translate(-202.613 -288.123)"/>
    <path id="Path_38" data-name="Path 38" class="cls-4" d="M517.134,677.408H413.356a1.259,1.259,0,1,1,0-2.519H517.134a1.259,1.259,0,0,1,0,2.519Z" transform="translate(-202.216 -309.947)"/>
    <path id="Path_39" data-name="Path 39" class="cls-4" d="M517.584,702.174H413.806a1.259,1.259,0,1,1,0-2.519H517.584a1.259,1.259,0,1,1,0,2.519Z" transform="translate(-202.414 -320.859)"/>
    <path id="Path_40" data-name="Path 40" class="cls-4" d="M655.163,677.858H625.441a1.259,1.259,0,1,1,0-2.519h29.723a1.259,1.259,0,0,1,0,2.519Z" transform="translate(-295.662 -310.145)"/>
    <path id="Path_41" data-name="Path 41" class="cls-4" d="M655.163,702.174H625.441a1.259,1.259,0,1,1,0-2.519h29.723a1.259,1.259,0,1,1,0,2.519Z" transform="translate(-295.662 -320.859)"/>
    <path id="Path_42" data-name="Path 42" class="cls-4" d="M744.32,677.858H714.6a1.259,1.259,0,0,1,0-2.519H744.32a1.259,1.259,0,0,1,0,2.519Z" transform="translate(-334.945 -310.145)"/>
    <path id="Path_43" data-name="Path 43" class="cls-4" d="M674.291,652.642H511.068a1.26,1.26,0,0,1,0-2.519H674.291a1.259,1.259,0,0,1,0,2.519Z" transform="translate(-245.268 -299.035)"/>
    <path id="Path_44" data-name="Path 44" class="cls-4" d="M443.529,652.642H413.806a1.26,1.26,0,0,1,0-2.519h29.723a1.259,1.259,0,1,1,0,2.519Z" transform="translate(-202.414 -299.035)"/>
    <path id="Path_45" data-name="Path 45" class="cls-4" d="M674.291,727.39H511.068a1.259,1.259,0,0,1,0-2.519H674.291a1.259,1.259,0,0,1,0,2.519Z" transform="translate(-245.268 -331.969)"/>
    <path id="Path_46" data-name="Path 46" class="cls-4" d="M443.529,727.39H413.806a1.259,1.259,0,1,1,0-2.519h29.723a1.259,1.259,0,1,1,0,2.519Z" transform="translate(-202.414 -331.969)"/>
    <path id="Path_47" data-name="Path 47" class="cls-5" d="M487.316,401.13l-40.3,39.8,40.3,39.8,9.068-9.068L465.906,441.18l30.73-30.73Z" transform="translate(-196.957 -176.74)"/>
    <path id="Path_48" data-name="Path 48" class="cls-5" d="M617.987,401.13l40.3,39.8-40.3,39.8-9.068-9.068L639.4,441.18l-30.73-30.73Z" transform="translate(-268.183 -176.74)"/>
    <circle id="Ellipse_18" data-name="Ellipse 18" class="cls-6" cx="5.035" cy="5.035" r="5.035" transform="translate(115.903 93.978)"/>
    <circle id="Ellipse_19" data-name="Ellipse 19" class="cls-6" cx="5.035" cy="5.035" r="5.035" transform="translate(129.328 93.978)"/>
    <circle id="Ellipse_20" data-name="Ellipse 20" class="cls-6" cx="5.035" cy="5.035" r="5.035" transform="translate(142.754 93.978)"/>
    <rect id="Rectangle_23" data-name="Rectangle 23" class="cls-3" width="420.664" height="1.678" transform="translate(109.75 107.404)"/>
    <path id="Path_49" data-name="Path 49" class="cls-7" d="M1088.482,566.111c0,35.673-21.207,48.129-47.368,48.129s-47.367-12.456-47.367-48.129,47.367-81.055,47.367-81.055S1088.482,530.437,1088.482,566.111Z" transform="translate(-458.495 -226.305)"/>
    <path id="Path_50" data-name="Path 50" class="cls-2" d="M1023.436,586.283l.487-29.855,20.189-36.935L1024,551.744l.218-13.424,13.912-26.722-13.856,23.17h0l.391-24.144,14.9-21.274-14.841,17.478.246-44.271-1.538,58.607.123-2.418-15.148-23.187,14.908,27.829-1.415,26.964-.039-.716-17.464-24.4,17.408,26.93-.174,3.372-.033.051.017.277-3.58,68.412h4.783l.571-35.336,17.369-26.864Z" transform="translate(-442.545 -203.805)"/>
    <path id="Path_51" data-name="Path 51" class="cls-8" d="M146.719,771a24.125,24.125,0,0,1-4.575,1.959c-2.841.776-5.878.491-8.747,1.154-1.175.271-2.454.839-2.827,1.985a4.17,4.17,0,0,0,.31,2.586c3.171,9.3,5.082,19.168,10.139,27.59a41.755,41.755,0,0,0,7.827,9.5,7.463,7.463,0,0,0,3.991,2.212,4.054,4.054,0,0,0,4.123-5.7c-.453-1.007-1.3-1.788-1.84-2.75a10.494,10.494,0,0,1-1.018-3.911c-.5-3.976-.981-8.132.4-11.9.924-2.524,2.619-4.676,4.031-6.963s2.585-4.907,2.271-7.576a13.159,13.159,0,0,0-2.042-5.065c-.941-1.579-2.8-5.822-4.689-6.349C152.109,767.241,148.43,770.127,146.719,771Z" transform="translate(-78.126 -350.849)"/>
    <path id="Path_52" data-name="Path 52" class="cls-8" d="M248.964,822.289a7.843,7.843,0,0,1-.371,2.654c-.592,1.562-2.059,2.633-2.817,4.121-1.054,2.07-.577,4.572.122,6.788a6.955,6.955,0,0,0,2.189,3.693,7.213,7.213,0,0,0,3.331,1.067c10.089,1.4,20.338.6,30.52.888,1.856.053,3.82.118,5.44-.789s2.621-3.187,1.52-4.681c-.989-1.342-2.945-1.329-4.611-1.408a18.971,18.971,0,0,1-11.7-4.819,8.457,8.457,0,0,1-1.641-1.889,11.6,11.6,0,0,1-.858-1.968,87.711,87.711,0,0,0-5.081-11.254,5.962,5.962,0,0,0-2.185-2.616,5.775,5.775,0,0,0-2.371-.518c-2.538-.164-9.109-1.028-11.071.945C247.567,814.328,249,819.973,248.964,822.289Z" transform="translate(-128.663 -370.02)"/>
    <circle id="Ellipse_21" data-name="Ellipse 21" class="cls-9" cx="16.208" cy="16.208" r="16.208" transform="translate(119.708 194.526)"/>
    <path id="Path_53" data-name="Path 53" class="cls-9" d="M249.787,417.224a12.184,12.184,0,0,1-4.979,6.394l22.417,4.573a23.749,23.749,0,0,1-.314-10,5.761,5.761,0,0,0,.134-2.466c-.422-1.626-2.252-2.409-3.891-2.783-4.091-.933-7.71-1.433-11.512-3.24C250.482,411.7,250.644,414.93,249.787,417.224Z" transform="translate(-128.508 -193.106)"/>
    <path id="Path_54" data-name="Path 54" class="cls-8" d="M228.48,422.5a17.53,17.53,0,0,1,15.279.4,34.585,34.585,0,0,1,7.592,6.056c2.155,2.079,4.454,4.46,4.607,7.45a20.875,20.875,0,0,1-.606,4.3,14.413,14.413,0,0,0,7.708,14.807c1.781,2.967,2.148,6.561,2.176,10.021.1,13.11-4.033,26.382-1.08,39.155.693,3,1.769,5.9,2.368,8.923.776,3.911.737,7.932,1.143,11.9a53.292,53.292,0,0,0,2.86,12.584,5.227,5.227,0,0,1-4.834,2.021,13.654,13.654,0,0,1-5.17-1.754c-7.9-4.043-15.137-9.374-23.319-12.81-5.414-2.273-11.181-3.689-16.433-6.315s-10.136-6.792-11.742-12.44a29.117,29.117,0,0,1-.775-7.554c-.16-10.692-.308-21.5,2.019-31.938,2.052-9.2,6.009-18.009,6.872-27.4.281-3.057.287-6.329,1.995-8.879C221.553,427.418,226.766,426.484,228.48,422.5Z" transform="translate(-112.366 -198.055)"/>
    <path id="Path_55" data-name="Path 55" class="cls-8" d="M249.536,380.156c.955-1.246,2.8-1.415,4.323-1.047s2.933,1.155,4.474,1.454a2.615,2.615,0,0,0,2.094-.294,3.046,3.046,0,0,0,.9-2,38.132,38.132,0,0,0,.375-9.723,2.879,2.879,0,0,1,.089-1.363c.382-.919,1.545-1.138,2.5-1.433a7.449,7.449,0,0,0,5.042-7.626,3.032,3.032,0,0,0-.927-2.092,3.812,3.812,0,0,0-2.426-.575q-6.535-.053-13.071,0a9.493,9.493,0,0,0-4.7.857,22.853,22.853,0,0,0-2.73,2.3c-2.42,1.953-5.693,2.35-8.638,3.351a8.563,8.563,0,0,0-3.786,2.258,3.988,3.988,0,0,0-.835,4.135,14.686,14.686,0,0,0,1.056,1.624c1.737,2.777.581,6.379.84,9.644.324,4.077,6.358,10.691,10.449,11.656C251.165,392.844,247.349,382.832,249.536,380.156Z" transform="translate(-122.837 -169.192)"/>
    <path id="Path_56" data-name="Path 56" class="cls-8" d="M244.57,696.8a48.373,48.373,0,0,1,.808,8.967c-.2,4.192-1.711,8.231-1.991,12.418-.209,3.127.274,6.289-.16,9.393-.278,1.988-.926,3.9-1.328,5.87a24.275,24.275,0,0,0,3.9,18.608,3.046,3.046,0,0,0,1.132,1.1,3.194,3.194,0,0,0,1.4.186,100.676,100.676,0,0,0,14.08-1.28,1.351,1.351,0,0,0,.9-.4,1.269,1.269,0,0,0,.2-.534c.864-4.439-1.106-8.891-1.607-13.385-.535-4.8.617-9.609,1.76-14.3a63.517,63.517,0,0,1,1.94-6.84c.552-1.509,1.22-2.976,1.7-4.51a34.382,34.382,0,0,0,1.232-7.385q.5-5.916.528-11.858a49.762,49.762,0,0,0-.931-11.194c-1.051-4.664-3.2-9-5.334-13.275a8.408,8.408,0,0,0-3.143,1.494,70.14,70.14,0,0,1-8.587,4.744c-2,.927-5.886,1.585-7.152,3.516-1.249,1.9-.443,5.79-.348,7.891Q243.818,691.427,244.57,696.8Z" transform="translate(-127.022 -307.077)"/>
    <path id="Path_57" data-name="Path 57" class="cls-3" d="M244.57,696.8a48.373,48.373,0,0,1,.808,8.967c-.2,4.192-1.711,8.231-1.991,12.418-.209,3.127.274,6.289-.16,9.393-.278,1.988-.926,3.9-1.328,5.87a24.275,24.275,0,0,0,3.9,18.608,3.046,3.046,0,0,0,1.132,1.1,3.194,3.194,0,0,0,1.4.186,100.676,100.676,0,0,0,14.08-1.28,1.351,1.351,0,0,0,.9-.4,1.269,1.269,0,0,0,.2-.534c.864-4.439-1.106-8.891-1.607-13.385-.535-4.8.617-9.609,1.76-14.3a63.517,63.517,0,0,1,1.94-6.84c.552-1.509,1.22-2.976,1.7-4.51a34.382,34.382,0,0,0,1.232-7.385q.5-5.916.528-11.858a49.762,49.762,0,0,0-.931-11.194c-1.051-4.664-3.2-9-5.334-13.275a8.408,8.408,0,0,0-3.143,1.494,70.14,70.14,0,0,1-8.587,4.744c-2,.927-5.886,1.585-7.152,3.516-1.249,1.9-.443,5.79-.348,7.891Q243.818,691.427,244.57,696.8Z" transform="translate(-127.022 -307.077)"/>
    <path id="Path_58" data-name="Path 58" class="cls-8" d="M191.1,605.518c-2.152,5.795,1.011,12.057,3.76,17.594,6.772,13.642,11.475,28.2,16.152,42.691a5.234,5.234,0,0,1,.31,3.342,4.377,4.377,0,0,1-1.578,1.872c-3.225,2.45-7.332,3.322-11.174,4.6a50.455,50.455,0,0,0-10.6,4.967c-2.784,1.725-5.392,3.717-7.995,5.7l-8.286,6.328a5.54,5.54,0,0,0-1.385,1.341c-.8,1.254-.472,2.891-.074,4.323a73.527,73.527,0,0,0,4.057,11.071,3.866,3.866,0,0,0,1.471,1.928c1.293.7,2.875-.227,3.863-1.313s1.842-2.438,3.234-2.9,2.921.1,4.373-.106c2.349-.33,3.908-2.493,5.6-4.154,6.917-6.786,18.466-6.294,26.075-12.294a33.134,33.134,0,0,1,3.486-2.723c1.286-.76,2.745-1.178,4.08-1.85,4.059-2.044,6.611-6.27,7.978-10.6s1.757-8.91,2.739-13.347a58.027,58.027,0,0,0,1.4-6.9,36.969,36.969,0,0,0-.142-6.526L235.707,614.6c-.224-2.765-.447-5.534-.881-8.274-8.154.292-16.3.62-24.461.716C203.872,607.116,197.261,607.57,191.1,605.518Z" transform="translate(-95.467 -279.382)"/>
    <path id="Path_59" data-name="Path 59" class="cls-8" d="M201.886,609.229c1.106,1.779,3.8,1.742,5.652.767s3.294-2.614,5.152-3.581c2.5-1.3,5.452-1.25,8.266-1.171,4.455.126,8.964.26,13.25,1.481,4.433,1.263,8.749,3.694,13.333,3.209a2.742,2.742,0,0,0,2.1-.988,3.1,3.1,0,0,0,.347-1.586l.15-4a3.616,3.616,0,0,0-.319-2.028,3.4,3.4,0,0,0-1.519-1.163c-6.524-3.158-13.965-3.747-21.21-3.995q-5.524-.189-11.052-.156c-3.128.019-6.882-.433-9.923.4C202.036,597.537,199.815,605.9,201.886,609.229Z" transform="translate(-109.249 -275.147)"/>
    <g id="Group_32" data-name="Group 32">
      <path id="Path_60" data-name="Path 60" class="cls-7" d="M242.139,427.6c-8.549-.076-16.3-5.718-24.844-5.856a6.442,6.442,0,0,0-3.017.521,11.232,11.232,0,0,0-2.879,2.74c-2.527,2.737-6.188,4.2-8.784,6.87-2.435,2.5-3.789,6.237-2.828,9.6s4.589,5.934,7.988,5.127a20.586,20.586,0,0,1,8.02-10.9,40.771,40.771,0,0,1,6.268-3.29c3.842-1.741,8.138-3.515,12.149-2.21a17.139,17.139,0,0,1,4.145,2.26l6.687,4.492C244.265,433.88,243.564,430.433,242.139,427.6Z" transform="translate(-108.534 -198.403)"/>
      <path id="Path_61" data-name="Path 61" class="cls-7" d="M203.183,449.107c-1.135,1.416.5,3.468.25,5.266-.166,1.194-1.149,2.106-1.558,3.241-.424,1.175-.2,2.476-.36,3.715a15.941,15.941,0,0,1-.713,2.646,47.534,47.534,0,0,0-1.5,7.846l-1.5,11.174a42.338,42.338,0,0,0-.473,5.078,15.164,15.164,0,0,1-.253,3.8,28.035,28.035,0,0,1-1.559,3.455,4.048,4.048,0,0,0-.056,3.65,6.38,6.38,0,0,0-1.335,7.963,4.419,4.419,0,0,1,.688,1.267,3.256,3.256,0,0,1-.3,1.869L193,514.1c-.387,1.032-.51,2.6.567,2.839a9.513,9.513,0,0,0-2.043,3.226,3.841,3.841,0,0,0,.544,3.639,4.637,4.637,0,0,1,.948,1.15,3.061,3.061,0,0,1-.11,1.814,6.66,6.66,0,0,0,.824,5.221,4.683,4.683,0,0,0,4.709,2.019c3.027-.683,5.746-1.76,8.8-1.2a157.182,157.182,0,0,1,19.526,4.448c7.263,2.319,14.3,5.719,21.887,6.433a2.125,2.125,0,0,0,1.464-.228,2.2,2.2,0,0,0,.677-1.391l2.346-11a113.2,113.2,0,0,0,2.157-12.322c.267-2.675.343-5.364.419-8.051l.6-21.386a21.368,21.368,0,0,0-1.231-9.3l-3.478-11.1c-1.985-6.336-6.538-11.955-8.159-18.394-1.026-4.075-1.784-8.448-4.536-11.625-3.923-4.528-10.709-5.233-16.65-4.454a19.891,19.891,0,0,0-7.711,2.35c-2.684,1.609-4.661,4.144-6.575,6.621C206.4,445.453,204.8,447.094,203.183,449.107Z" transform="translate(-104.926 -203.883)"/>
    </g>
    <path id="Path_62" data-name="Path 62" class="cls-9" d="M236.91,562.4c.489,2.11,1.517,4.056,2.146,6.129,1.054,3.473.965,7.214,2.017,10.688.442,1.458,1.081,2.858,1.4,4.348.739,3.474-.34,7.068-1.68,10.358s-2.972,6.533-3.407,10.058c-.306,2.483.134,5.286,2.048,6.9,1.987,1.673,4.874,1.56,7.462,1.337a7.842,7.842,0,0,0,2.708-.564c1.979-.936,2.812-3.278,3.275-5.418,1.55-7.171,1.107-14.6.657-21.926l-1.178-19.15a44.822,44.822,0,0,0-1.606-10.99c-.413-1.288-1.134-3.89-2.31-4.712s-4.492-.851-5.934-.918C235.738,548.214,235.814,557.66,236.91,562.4Z" transform="translate(-124.783 -254.27)"/>
    <path id="Path_63" data-name="Path 63" class="cls-8" d="M240.081,446.6a4.659,4.659,0,0,0-4.459.394,13.744,13.744,0,0,0-3.341,3.243c-2.987,3.646-6.148,7.828-5.705,12.52a31.755,31.755,0,0,0,1.3,5.131c2,7.484-.212,15.4.042,23.144A72.465,72.465,0,0,0,230,504.282c.2.892.515,1.924,1.378,2.225a2.992,2.992,0,0,0,1.99-.308,15.871,15.871,0,0,1,14.524,1.831c1.6-.855,1-3.559.643-5.34-1.068-5.291.382-10.748,2.142-15.851s3.866-10.2,4.157-15.587c.33-6.106-1.694-12.066-3.692-17.846a5.739,5.739,0,0,0-4.834-4.786A33.344,33.344,0,0,1,240.081,446.6Z" transform="translate(-120.456 -209.184)"/>
  </g>
</svg>
